<svg width="83" height="83" viewBox="0 0 83 83" fill="none" xmlns="http://www.w3.org/2000/svg">
    <path d="M68.3996 14.6004C61.2145 7.41554 51.6611 3.45831 41.5 3.45831C31.3389 3.45831 21.7855 7.41539 14.6004 14.6004C7.41556 21.7855 3.45833 31.3388 3.45833 41.5C3.45833 51.6611 7.41541 61.2145 14.6004 68.3996C21.7855 75.5844 31.3389 79.5416 41.5 79.5416C51.6611 79.5416 61.2145 75.5846 68.3996 68.3996C75.5844 61.2145 79.5417 51.6611 79.5417 41.5C79.5417 31.3388 75.5846 21.7855 68.3996 14.6004ZM19.9686 67.252C21.2248 56.4435 30.5175 48.0989 41.5 48.0989C47.2895 48.0989 52.7339 50.3545 56.829 54.4492C60.2886 57.9093 62.4706 62.4271 63.0319 67.2514C57.1983 72.1372 49.687 75.0836 41.5 75.0836C33.313 75.0836 25.8023 72.1378 19.9686 67.252ZM41.5 43.5071C35.1294 43.5071 29.9457 38.3236 29.9457 31.953C29.9457 25.5818 35.1295 20.3987 41.5 20.3987C47.8705 20.3987 53.0543 25.5818 53.0543 31.953C53.0543 38.3236 47.8706 43.5073 41.5 43.5073V43.5071ZM66.8689 63.483C65.7235 58.8704 63.3421 54.6574 59.981 51.2972C57.2412 48.5573 53.9998 46.5019 50.4648 45.2138C54.7144 42.3318 57.5123 37.4628 57.5123 31.953C57.5123 23.1241 50.3289 15.9407 41.5 15.9407C32.6711 15.9407 25.4877 23.1241 25.4877 31.953C25.4877 37.4658 28.2879 42.3364 32.541 45.218C29.2886 46.4032 26.279 48.2357 23.6895 50.6481C19.9396 54.1402 17.3357 58.593 16.1283 63.4794C11.015 57.5848 7.91634 49.8977 7.91634 41.5C7.91634 22.9819 22.9819 7.91632 41.5 7.91632C60.0181 7.91632 75.0837 22.9819 75.0837 41.5C75.0837 49.8993 71.9839 57.5883 66.8689 63.483Z" fill="black"/>
</svg>
